<svg xmlns="http://www.w3.org/2000/svg" viewBox="0 0 512 512"><defs><style>.cls-1{fill:#74e1f3;}.cls-2{fill:#fff;}.cls-3{fill:#d3d3d3;}.cls-4{fill:#29327f;}.cls-5{fill:#4967c9;}.cls-6{fill:#39eac8;}.cls-7{fill:#1fb7a2;}.cls-8{fill:#252f6d;}.cls-9{fill:#3342ae;}.cls-10{fill:#bfd8f7;}.cls-11{fill:#ff79ab;}.cls-12{fill:#e26d9d;}.cls-13{fill:#eb3c65;}.cls-14{fill:#d1d2d3;}.cls-15{fill:#f9e9aa;}.cls-16{fill:#a0335a;}</style></defs><title>Dental Care</title><g id="BULINE"><circle class="cls-1" cx="256" cy="256" r="256"/></g><g id="Icons"><rect class="cls-2" x="81.78" y="203.34" width="349" height="228.12"/><rect class="cls-3" x="81.77" y="203.34" width="103" height="228.12"/><rect class="cls-4" x="84.53" y="119.52" width="343.5" height="55.88" rx="6.1"/><rect class="cls-5" x="59.61" y="147.46" width="393.33" height="55.88" rx="6.52"/><path class="cls-6" d="M286,238.94V371.87a5.59,5.59,0,0,1-5.59,5.59H106.87a5.59,5.59,0,0,1-5.59-5.59V238.94a5.59,5.59,0,0,1,5.59-5.59H280.36A5.59,5.59,0,0,1,286,238.94Z"/><path class="cls-7" d="M285.94,347.46v24.41a5.59,5.59,0,0,1-5.59,5.59H106.86a5.59,5.59,0,0,1-5.59-5.59V238.94a5.59,5.59,0,0,1,5.59-5.59h33.08V341.87a5.59,5.59,0,0,0,5.59,5.59Z"/><path class="cls-6" d="M411.28,237.07V431.46H312.61V237.07a3.72,3.72,0,0,1,3.73-3.72h91.21A3.72,3.72,0,0,1,411.28,237.07Z"/><path class="cls-8" d="M193.63,119.52a6.1,6.1,0,0,0-6.1,6.1v21.84H169.14a6.53,6.53,0,0,0-6.53,6.53V175.4h-72a6.1,6.1,0,0,1-6.1-6.09V125.62a6.1,6.1,0,0,1,6.1-6.1Z"/><path class="cls-9" d="M169.14,203.34h-103a6.52,6.52,0,0,1-6.53-6.52V154a6.53,6.53,0,0,1,6.53-6.53h103a6.53,6.53,0,0,0-6.53,6.53v42.83A6.52,6.52,0,0,0,169.14,203.34Z"/><path class="cls-5" d="M411.28,400.79h23.67a4.33,4.33,0,0,1,4.33,4.33v22a4.33,4.33,0,0,1-4.33,4.33H411.28a0,0,0,0,1,0,0V400.79A0,0,0,0,1,411.28,400.79Z"/><path class="cls-10" d="M271.89,233.35,127.78,377.46H106.87a5.59,5.59,0,0,1-5.59-5.59v-2.79L237,233.35Z"/><polygon class="cls-10" points="285.95 251.74 285.95 286.63 195.12 377.46 160.23 377.46 285.95 251.74"/><path class="cls-10" d="M411.28,237.07v26.66L312.61,362.4V322.81l89.46-89.46h5.48A3.72,3.72,0,0,1,411.28,237.07Z"/><polygon class="cls-10" points="411.28 294.14 411.28 333.73 313.55 431.46 312.61 431.46 312.61 392.81 411.28 294.14"/><rect class="cls-11" x="321.28" y="305.4" width="78.67" height="48.73" rx="5.7"/><path class="cls-12" d="M399.94,339v9.47a5.7,5.7,0,0,1-5.7,5.7H327a5.7,5.7,0,0,1-5.7-5.7V311.1a5.7,5.7,0,0,1,5.7-5.7h17.3v27.87A5.7,5.7,0,0,0,350,339Z"/><circle class="cls-13" cx="254.38" cy="101.68" r="85.12"/><circle class="cls-11" cx="254.38" cy="101.68" r="71.33"/><path class="cls-2" d="M316.52,88.66c0-24.59-16.17-44.52-36.11-44.52A30.27,30.27,0,0,0,266,47.83a24.41,24.41,0,0,1-23.23,0,30.3,30.3,0,0,0-14.41-3.69c-20,0-36.12,19.93-36.12,44.52A52,52,0,0,0,198.1,113a118.59,118.59,0,0,1,13.65,44.29l.11,1.12a16.81,16.81,0,0,0,15.61,15.33,16.56,16.56,0,0,0,17.36-15l2.81-29.7a4.82,4.82,0,0,1,3.85-4.27h.07a14.14,14.14,0,0,1,5.65,0h.06a4.83,4.83,0,0,1,3.86,4.27l2.77,29.33a16.82,16.82,0,0,0,15.62,15.33,16.56,16.56,0,0,0,17.36-15l.14-1.49A118.4,118.4,0,0,1,310.67,113,52,52,0,0,0,316.52,88.66Z"/><path class="cls-14" d="M238.15,170.51a16.48,16.48,0,0,1-10.68,3.2,16.83,16.83,0,0,1-15.62-15.33l-.1-1.12A118.4,118.4,0,0,0,198.1,113a52,52,0,0,1-5.86-24.3c0-24.6,16.17-44.53,36.12-44.53a29.72,29.72,0,0,1,9.74,1.64C222.88,51,211.72,68.24,211.72,88.67a52,52,0,0,0,5.85,24.3,118.6,118.6,0,0,1,13.66,44.29l.1,1.12A17.1,17.1,0,0,0,238.15,170.51Z"/><path class="cls-15" d="M282.89,63.26c0,2.48-20.34,8.15-19.61,10.39s20.56-5.05,22-3.11-11.7,18.51-9.75,19.93,13.62-16.17,15.95-15.42,1.35,21.84,3.83,21.84,1.59-21.11,3.83-21.84,14,16.82,15.95,15.42-11.17-18-9.75-19.93,21.21,5.43,22,3.11-19.61-7.91-19.61-10.39S328,55.1,327.28,52.86s-20.56,5-22,3.12,11.7-18.51,9.75-19.93-13.63,16.17-15.95,15.42-1.35-21.85-3.83-21.85-1.59,21.12-3.83,21.85-14-16.83-15.95-15.42S286.67,54,285.25,56s-21.21-5.44-22-3.12S282.89,60.77,282.89,63.26Z"/><path class="cls-5" d="M78.28,400.79H312.61a0,0,0,0,1,0,0v30.67a0,0,0,0,1,0,0H78.28a4.33,4.33,0,0,1-4.33-4.33v-22A4.33,4.33,0,0,1,78.28,400.79Z"/><path class="cls-9" d="M184.77,400.8v30.66H78.27a4.33,4.33,0,0,1-4.33-4.33v-22a4.33,4.33,0,0,1,4.33-4.33Z"/><path class="cls-16" d="M442.46,431.46a256,256,0,0,1-372.92,0Z"/></g></svg>