<?xml version="1.0" encoding="iso-8859-1"?>
<!-- Generator: Adobe Illustrator 19.0.0, SVG Export Plug-In . SVG Version: 6.00 Build 0)  -->
<svg xmlns="http://www.w3.org/2000/svg" xmlns:xlink="http://www.w3.org/1999/xlink" version="1.1" id="Layer_1" x="0px" y="0px" viewBox="0 0 511.997 511.997" style="enable-background:new 0 0 511.997 511.997;" xml:space="preserve">
<path style="fill:#E0E0E3;" d="M68.643,384.766l58.588,58.588c10.761,10.761,28.208,10.761,38.969,0l220.156-220.157l-97.556-97.556  L68.643,345.797C57.882,356.558,57.882,374.005,68.643,384.766z"/>
<path style="fill:#D2D1D3;" d="M288.798,125.641l-20.36,20.36l67.276,67.276l-219.28,219.281l10.796,10.796  c10.761,10.761,28.208,10.761,38.968,0l220.157-220.157L288.798,125.641z"/>
<path style="fill:#00D8DE;" d="M252.33,281.03c9.075,1.151,19.466,8.349,18.71,22.62L163.966,410.723  c-7.527,7.527-19.118,8.143-25.888,1.373l-36.857-36.857c-6.77-6.77-6.155-18.361,1.373-25.888l82.347-82.347  C207.893,292.828,224.353,277.481,252.33,281.03z"/>
<path style="fill:#E0E0E3;" d="M42.838,470.336L42.838,470.336c12.331,12.331,32.323,12.331,44.653,0l33.36-33.36l-44.653-44.653  l-33.36,33.36C30.507,438.014,30.507,458.006,42.838,470.336z"/>
<path style="fill:#D2D1D3;" d="M76.198,392.322l-15.005,15.005l24.687,24.687l-33.36,33.36c-2.555,2.555-5.442,4.572-8.519,6.069  c12.395,11.214,31.541,10.845,43.492-1.106l33.36-33.36L76.198,392.322z"/>
<path style="fill:#E0E0E3;" d="M425.174,13.75l73.072,73.072c7.885,7.885,7.885,20.669,0,28.554l0,0  c-7.885,7.885-20.669,7.885-28.554,0l-22.21-22.21l-65.595,65.595l-28.652-28.652l65.595-65.595l-22.21-22.21  c-7.885-7.885-7.885-20.669,0-28.554l0,0C404.505,5.865,417.29,5.865,425.174,13.75z"/>
<path style="fill:#D2D1D3;" d="M498.247,86.821l-8.512-8.512c2.833,7.243,1.334,15.789-4.517,21.641  c-7.885,7.885-20.669,7.885-28.554,0l-22.21-22.21l-66.794,66.794l14.226,14.226l65.595-65.595l22.21,22.21  c7.885,7.885,20.669,7.885,28.554,0C506.132,107.49,506.132,94.706,498.247,86.821z"/>
<path style="fill:#E0E0E3;" d="M319.319,94.817l97.86,97.86c8.66,8.66,8.66,22.7,0,31.36l0,0c-8.66,8.66-22.7,8.66-31.36,0  l-97.86-97.86c-8.66-8.66-8.66-22.7,0-31.36l0,0C296.619,86.157,310.66,86.157,319.319,94.817z"/>
<path d="M253.316,273.256c-9.992-1.266-18.519-0.359-26.042,0.445c-14.753,1.569-23.656,2.521-36.477-11.903  c-1.435-1.613-3.47-2.564-5.628-2.628c-2.147-0.071-4.245,0.765-5.771,2.291l-82.347,82.347  c-10.571,10.571-11.188,27.156-1.373,36.972l36.858,36.858c4.668,4.668,10.866,6.976,17.222,6.976  c7.007,0,14.205-2.807,19.748-8.349l107.073-107.074c1.369-1.369,2.182-3.195,2.284-5.126  C279.819,286.086,266.733,274.958,253.316,273.256z M254.314,309.294l-9.484-9.486c-3.061-3.06-8.023-3.062-11.082-0.001  c-3.06,3.06-3.06,8.023,0,11.082l9.486,9.486l-29.469,29.468l-9.484-9.486c-3.06-3.06-8.023-3.062-11.083-0.001  c-3.06,3.06-3.06,8.023,0,11.082l9.486,9.487l-29.468,29.468l-9.484-9.486c-3.06-3.06-8.023-3.062-11.083-0.001  c-3.06,3.06-3.06,8.023,0,11.082l9.486,9.487l-3.704,3.704c-4.461,4.461-11.103,5.078-14.805,1.373l-36.858-36.856  c-3.704-3.704-3.089-10.345,1.372-14.806l76.786-76.786c15.826,14.186,30.133,12.66,44.016,11.179  c6.998-0.746,14.231-1.516,22.407-0.481c1.183,0.15,10.802,1.677,11.813,11.646L254.314,309.294z"/>
<path d="M503.787,81.277l-21.243-21.243c-3.06-3.059-8.023-3.059-11.082,0c-3.06,3.062-3.06,8.023,0,11.083l21.243,21.243  c2.335,2.334,3.622,5.438,3.622,8.736c0,3.299-1.286,6.402-3.614,8.73c-2.344,2.337-5.447,3.626-8.738,3.626  c-3.305,0-6.409-1.284-8.742-3.617l-22.204-22.214c-1.47-1.47-3.463-2.297-5.542-2.297l0,0c-2.079,0-4.072,0.825-5.542,2.295  l-59.369,59.37l-17.568-17.568l59.369-59.369c1.47-1.47,2.296-3.464,2.296-5.543c0-2.078-0.826-4.072-2.297-5.542l-22.209-22.199  c-4.813-4.819-4.813-12.662-0.003-17.479c2.333-2.333,5.434-3.618,8.731-3.618c3.31,0,6.413,1.283,8.743,3.62l31.528,31.528  c3.06,3.059,8.023,3.059,11.082,0c3.06-3.062,3.06-8.023,0-11.083l-31.52-31.517C425.441,2.919,418.398,0,410.894,0  c-7.485,0-14.521,2.915-19.818,8.213c-10.913,10.926-10.913,28.706,0.004,39.638l16.67,16.662l-53.826,53.827l-29.064-29.064  c-5.669-5.669-13.205-8.79-21.222-8.79c-8.016,0-15.553,3.121-21.222,8.79c-5.669,5.669-8.791,13.205-8.791,21.222  c0,5.407,1.425,10.593,4.09,15.138l-35.076,35.076c-3.06,3.062-3.06,8.023,0,11.083c1.53,1.53,3.536,2.295,5.541,2.295  c2.005,0,4.011-0.765,5.541-2.295l34.385-34.384l86.478,86.477L160.661,437.813c-7.691,7.684-20.207,7.684-27.894,0.002  l-58.584-58.583c-7.684-7.69-7.684-20.206-0.002-27.893l154.007-153.997c3.06-3.06,3.06-8.023,0-11.082  c-3.06-3.062-8.023-3.06-11.082-0.001L63.094,340.258c-13.786,13.799-13.786,36.253,0.002,50.054l2.014,2.013l-27.815,27.815  c-13.26,13.26-15.067,33.69-5.443,48.919L2.295,498.618c-3.06,3.062-3.06,8.023,0,11.083c1.53,1.53,3.536,2.295,5.541,2.295  s4.011-0.765,5.541-2.295l29.321-29.321c6.729,4.674,14.594,7.022,22.466,7.022c10.093,0,20.185-3.842,27.868-11.524l27.816-27.816  l0.838,0.838c6.9,6.893,15.962,10.34,25.025,10.339c9.063,0,18.129-3.447,25.029-10.34l214.62-214.62  c4.544,2.664,9.73,4.09,15.137,4.09c8.016,0,15.552-3.121,21.221-8.79c11.702-11.702,11.702-30.742,0-42.443l-29.063-29.063  l53.826-53.827l16.663,16.671c5.293,5.294,12.335,8.21,19.826,8.21c7.47,0,14.505-2.913,19.814-8.209  c5.296-5.296,8.212-12.335,8.212-19.821S509.083,86.574,503.787,81.277z M81.951,464.794c-9.254,9.257-24.315,9.258-33.571,0v0.001  c-9.256-9.256-9.256-24.316,0-33.571l27.815-27.815l33.571,33.571L81.951,464.794z M411.638,218.497  c-2.708,2.708-6.309,4.199-10.139,4.199c-3.831,0-7.43-1.491-10.139-4.2l-97.86-97.859c-2.708-2.708-4.199-6.308-4.199-10.139  c0-3.83,1.491-7.429,4.199-10.139c2.708-2.708,6.309-4.199,10.139-4.199c3.83,0,7.43,1.491,10.139,4.2l97.859,97.859  C417.228,203.809,417.228,212.905,411.638,218.497z"/>
<path d="M335.415,247.111c2.005,0,4.011-0.765,5.541-2.295c3.06-3.062,3.06-8.023,0-11.082l-15.027-15.028  c-3.059-3.062-8.022-3.061-11.082-0.001c-3.06,3.06-3.06,8.023,0,11.082l15.027,15.028  C331.405,246.346,333.41,247.111,335.415,247.111z"/>
<path d="M294.865,287.662c2.005,0,4.011-0.765,5.541-2.295c3.06-3.062,3.06-8.023,0-11.082l-15.027-15.028  c-3.06-3.06-8.023-3.062-11.082-0.001c-3.06,3.06-3.06,8.023,0,11.082l15.027,15.028  C290.854,286.897,292.859,287.662,294.865,287.662z"/>
<path d="M387.802,264.425l-17.293,17.293c-3.06,3.062-3.06,8.023,0,11.082c1.53,1.531,3.536,2.296,5.541,2.296  s4.011-0.765,5.541-2.295l17.293-17.293c3.06-3.062,3.06-8.023,0-11.083C395.825,261.365,390.862,261.365,387.802,264.425z"/>
<path d="M199.84,168.466c2.005,0,4.011-0.765,5.541-2.295l17.293-17.293c3.06-3.062,3.06-8.023,0-11.083  c-3.059-3.059-8.022-3.059-11.082,0l-17.293,17.293c-3.061,3.062-3.061,8.023,0,11.082  C195.829,167.7,197.834,168.466,199.84,168.466z"/>
<path d="M437.48,141.544l-7.392,7.392c-3.06,3.062-3.06,8.023,0,11.083c1.53,1.53,3.536,2.295,5.541,2.295s4.011-0.765,5.541-2.295  l7.392-7.392c3.06-3.062,3.06-8.023,0-11.083C445.503,138.484,440.541,138.484,437.48,141.544z"/>
<path d="M340.774,311.452l-73.952,73.952c-3.061,3.062-3.061,8.023,0,11.083c1.53,1.53,3.536,2.295,5.541,2.295  s4.011-0.765,5.541-2.295l73.952-73.952c3.06-3.062,3.06-8.023,0-11.083C348.797,308.393,343.835,308.393,340.774,311.452z"/>
<path d="M267.567,49.038c1.29,2.938,4.165,4.688,7.181,4.688c1.052,0,2.121-0.213,3.146-0.664c3.963-1.74,5.766-6.362,4.026-10.326  l-5.561-12.667c-1.741-3.962-6.363-5.767-10.326-4.026c-3.963,1.74-5.766,6.362-4.026,10.326L267.567,49.038z"/>
<path d="M317.192,49.231c1.001,0.425,2.04,0.627,3.063,0.627c3.048,0,5.948-1.79,7.215-4.772l6.318-14.86  c1.694-3.983-0.162-8.585-4.145-10.279c-3.983-1.695-8.585,0.162-10.278,4.146l-6.318,14.86  C311.353,42.936,313.209,47.538,317.192,49.231z"/>
<path d="M224.199,78.334l15.216,5.407c0.867,0.308,1.753,0.455,2.624,0.455c3.222,0,6.243-2.004,7.384-5.214  c1.449-4.078-0.681-8.559-4.761-10.009l-15.216-5.407c-4.077-1.449-8.559,0.682-10.008,4.761  C217.989,72.403,220.12,76.884,224.199,78.334z"/>
<g>
</g>
<g>
</g>
<g>
</g>
<g>
</g>
<g>
</g>
<g>
</g>
<g>
</g>
<g>
</g>
<g>
</g>
<g>
</g>
<g>
</g>
<g>
</g>
<g>
</g>
<g>
</g>
<g>
</g>
</svg>
