<svg xmlns="http://www.w3.org/2000/svg" viewBox="0 0 64 64"><defs><style>.cls-1{isolation:isolate;}.cls-2{fill:#f0e5cd;}.cls-3{fill:#4094c9;}.cls-4{fill:#bbbaba;}.cls-5{fill:#586068;}.cls-6{fill:#dc3527;}.cls-7{fill:#ffcc2c;}.cls-8,.cls-9{opacity:0.25;}.cls-8{mix-blend-mode:multiply;}.cls-10{fill:#010101;}.cls-11{mix-blend-mode:overlay;}.cls-12{fill:#fff;}.cls-13,.cls-14{fill:none;stroke:#010101;stroke-linecap:round;stroke-linejoin:round;}.cls-13{stroke-width:2px;}</style></defs><title>Icon Color17</title><g class="cls-1"><g id="Color"><g id="Color-2" data-name="Color"><path class="cls-2" d="M38.2,15.18V41.63a1.5,1.5,0,0,1-1.5,1.5H19.5A1.48,1.48,0,0,1,18.05,42,5.35,5.35,0,0,0,7.59,42a1.45,1.45,0,0,1-1.45,1.12H4.74a1.5,1.5,0,0,1-1.5-1.5V15.18a1.5,1.5,0,0,1,1.5-1.5H36.69A1.5,1.5,0,0,1,38.2,15.18Z"/><path class="cls-2" d="M61.52,33.07v8.67a1.38,1.38,0,0,1-1.38,1.38h-4a5.36,5.36,0,1,0-10.71,0H39.59a1.38,1.38,0,0,1-1.38-1.38V21.4A1.38,1.38,0,0,1,39.59,20h7.28a1.36,1.36,0,0,1,1.18.67l5,8.14a1.37,1.37,0,0,0,.73.59l6.81,2.36A1.36,1.36,0,0,1,61.52,33.07Z"/><polygon class="cls-3" points="45.58 23.61 41.63 23.61 41.63 29.24 48.8 29.24 45.58 23.61"/><path class="cls-4" d="M56.1,43.12a5.36,5.36,0,1,1-5.36-5.36A5.36,5.36,0,0,1,56.1,43.12Z"/><path class="cls-4" d="M18.18,43.12a5.35,5.35,0,1,1-5.35-5.36A5.35,5.35,0,0,1,18.18,43.12Z"/><circle class="cls-5" cx="12.83" cy="43.12" r="1.71"/><circle class="cls-5" cx="50.75" cy="43.12" r="1.71"/><rect class="cls-6" x="3.25" y="33.29" width="58.26" height="2.87"/><rect class="cls-7" x="6.4" y="16.88" width="1.93" height="1.93"/><rect class="cls-6" x="10.05" y="16.88" width="1.93" height="1.93"/><rect class="cls-6" x="28.87" y="16.88" width="1.93" height="1.93"/><rect class="cls-7" x="32.51" y="16.88" width="1.93" height="1.93"/><polygon class="cls-6" points="25.52 21.22 22.85 21.22 22.85 18.56 17 18.56 17 21.22 14.34 21.22 14.34 27.07 17 27.07 17 29.73 22.85 29.73 22.85 27.07 25.52 27.07 25.52 21.22"/><path class="cls-6" d="M44.46,16h-.78A1.64,1.64,0,0,0,42,17.59V20h4.07V17.59A1.66,1.66,0,0,0,44.46,16Z"/></g></g><g id="Shadow" class="cls-8"><g id="Shadow-2" data-name="Shadow" class="cls-9"><path class="cls-10" d="M6.4,41V15.8a2.12,2.12,0,0,1,2.12-2.12H4.75a1.49,1.49,0,0,0-1.49,1.49V41.62a1.49,1.49,0,0,0,1.49,1.49h1.4a1.48,1.48,0,0,0,1.06-.46A2.08,2.08,0,0,1,6.4,41Z"/><path class="cls-10" d="M21.09,41.53A5.35,5.35,0,0,0,16,37.76a5.29,5.29,0,0,0-1.59.25,5.35,5.35,0,0,1,3.67,4,1.45,1.45,0,0,0,1.45,1.12h3.63A2.17,2.17,0,0,1,21.09,41.53Z"/><path class="cls-10" d="M41.41,41.29A1.38,1.38,0,0,1,40,39.91V20h-.45a1.38,1.38,0,0,0-1.38,1.38V41.73a1.38,1.38,0,0,0,1.38,1.38h5.81a5.26,5.26,0,0,1,.34-1.83H41.41Z"/><path class="cls-10" d="M57.94,41.29A5.34,5.34,0,0,0,48,38.54a5.31,5.31,0,0,1,2.74-.78,5.36,5.36,0,0,1,5.36,5.36h4a1.38,1.38,0,0,0,1.38-1.38v-.45Z"/><path class="cls-10" d="M43.58,27.26V25.61a2,2,0,0,1,2-2H41.63v5.63h3.94A2,2,0,0,1,43.58,27.26Z"/><path class="cls-10" d="M47.32,29.24H48.8l-.25-.44A1.92,1.92,0,0,1,47.32,29.24Z"/><path class="cls-10" d="M9.31,43.12a5.34,5.34,0,0,1,4.43-5.27,5.5,5.5,0,0,0-.91-.09,5.36,5.36,0,1,0,.91,10.62A5.34,5.34,0,0,1,9.31,43.12Z"/><path class="cls-10" d="M47.32,43.12a5.35,5.35,0,0,1,4.39-5.26,5,5,0,0,0-1-.1,5.36,5.36,0,0,0,0,10.71,5,5,0,0,0,1-.1A5.35,5.35,0,0,1,47.32,43.12Z"/><path class="cls-10" d="M44.9,16a1.62,1.62,0,0,0-.44-.07h-.78A1.64,1.64,0,0,0,42,17.58V20h1.67V17.58A1.63,1.63,0,0,1,44.9,16Z"/></g></g><g id="Highlight" class="cls-11"><g id="Highlight-2" data-name="Highlight"><path class="cls-12" d="M5.45,43.12h.7A1.48,1.48,0,0,0,7.6,42a5.36,5.36,0,0,1,.6-1.53A5.31,5.31,0,0,0,5.45,43.12Z"/><path class="cls-12" d="M36.7,13.68H4.75a1.49,1.49,0,0,0-1.49,1.49v.77h30.9a1.5,1.5,0,0,1,1.5,1.49V43.11h1.05a1.49,1.49,0,0,0,1.49-1.49V15.18A1.5,1.5,0,0,0,36.7,13.68Z"/><path class="cls-12" d="M48.21,37.76a5.36,5.36,0,0,0-5.35,5.36H45.4a5.35,5.35,0,0,1,4.08-5.19A5.33,5.33,0,0,0,48.21,37.76Z"/><path class="cls-12" d="M60.59,31.77l-6.81-2.36a1.42,1.42,0,0,1-.73-.59l-5-8.14A1.39,1.39,0,0,0,46.87,20H44.33a1.36,1.36,0,0,1,1.18.67l5,8.14a1.37,1.37,0,0,0,.73.59l6.81,2.36a1.38,1.38,0,0,1,.93,1.3v8.67a1.38,1.38,0,0,1-1.38,1.38h2.54a1.38,1.38,0,0,0,1.38-1.38V33.07A1.38,1.38,0,0,0,60.59,31.77Z"/><path class="cls-12" d="M44.74,29.24H48.8l-3.22-5.63H43.05a1.32,1.32,0,0,1,1.16.68l1.69,3A1.33,1.33,0,0,1,44.74,29.24Z"/><path class="cls-12" d="M12.83,37.76a5.5,5.5,0,0,0-.91.09,5.34,5.34,0,0,1,0,10.53,5.5,5.5,0,0,0,.91.09,5.36,5.36,0,0,0,0-10.71Z"/><path class="cls-12" d="M50.75,37.76a5.15,5.15,0,0,0-1,.1,5.34,5.34,0,0,1,0,10.51,5.23,5.23,0,0,0,1,.1,5.35,5.35,0,1,0,0-10.71Z"/><rect class="cls-12" x="3.25" y="33.29" width="58.26" height="2.87"/><path class="cls-12" d="M44.46,16h-.78a1.57,1.57,0,0,0-.49.08,1.64,1.64,0,0,1,1.15,1.56V20h1.77V17.59A1.66,1.66,0,0,0,44.46,16Z"/></g></g><g id="Line"><g id="Line-2" data-name="Line"><path class="cls-13" d="M38.2,15.18V41.63a1.5,1.5,0,0,1-1.5,1.5H19.5A1.48,1.48,0,0,1,18.05,42,5.35,5.35,0,0,0,7.59,42a1.45,1.45,0,0,1-1.45,1.12H4.74a1.5,1.5,0,0,1-1.5-1.5V15.18a1.5,1.5,0,0,1,1.5-1.5H36.69A1.5,1.5,0,0,1,38.2,15.18Z"/><path class="cls-13" d="M61.52,33.07v8.67a1.38,1.38,0,0,1-1.38,1.38h-4a5.36,5.36,0,1,0-10.71,0H39.59a1.38,1.38,0,0,1-1.38-1.38V21.4A1.38,1.38,0,0,1,39.59,20h7.28a1.36,1.36,0,0,1,1.18.67l5,8.14a1.37,1.37,0,0,0,.73.59l6.81,2.36A1.36,1.36,0,0,1,61.52,33.07Z"/><polygon class="cls-13" points="45.58 23.61 41.63 23.61 41.63 29.24 48.8 29.24 45.58 23.61"/><path class="cls-13" d="M56.1,43.12a5.36,5.36,0,1,1-5.36-5.36A5.36,5.36,0,0,1,56.1,43.12Z"/><path class="cls-13" d="M18.18,43.12a5.35,5.35,0,1,1-5.35-5.36A5.35,5.35,0,0,1,18.18,43.12Z"/><circle class="cls-13" cx="12.83" cy="43.12" r="1.71"/><circle class="cls-13" cx="50.75" cy="43.12" r="1.71"/><rect class="cls-13" x="3.25" y="33.29" width="58.26" height="2.87"/><rect class="cls-14" x="6.4" y="16.88" width="1.93" height="1.93"/><rect class="cls-14" x="10.05" y="16.88" width="1.93" height="1.93"/><rect class="cls-14" x="28.87" y="16.88" width="1.93" height="1.93"/><rect class="cls-14" x="32.51" y="16.88" width="1.93" height="1.93"/><polygon class="cls-13" points="25.52 21.22 22.85 21.22 22.85 18.56 17 18.56 17 21.22 14.34 21.22 14.34 27.07 17 27.07 17 29.73 22.85 29.73 22.85 27.07 25.52 27.07 25.52 21.22"/><path class="cls-13" d="M44.46,16h-.78A1.64,1.64,0,0,0,42,17.59V20h4.07V17.59A1.66,1.66,0,0,0,44.46,16Z"/></g></g></g></svg>